<?xml version="1.0" encoding="utf-8"?>
<!-- Generator: Adobe Illustrator 20.0.0, SVG Export Plug-In . SVG Version: 6.00 Build 0)  -->
<svg version="1.1" id="Layer_1" xmlns="http://www.w3.org/2000/svg" xmlns:xlink="http://www.w3.org/1999/xlink" x="0px" y="0px"
	 viewBox="0 0 24 30" style="enable-background:new 0 0 24 30; fill:white" xml:space="preserve">
<style type="text/css">
	.st0{display:none;enable-background:new    ;}
	.st1{display:inline;}
</style>
<title>icon-paperplane</title>
<desc>Created with love by @immaulana.</desc>
<g>
	<path d="M8.6,15.8c-0.2-0.2-0.2-0.5,0-0.7L20.6,3.1L2.9,8.6L7,12.7c0.1,0.1,0.1,0.2,0.1,0.4l0,6.6L9.9,17L8.6,15.8z M9.7,15.4
		l6.1,6.1l5.4-17.7L9.7,15.4z M16.5,22.6c-0.1,0.4-0.6,0.5-0.8,0.2l-5.1-5.1L7,21.3c-0.3,0.3-0.9,0.1-0.9-0.4v-7.6L1.6,8.7
		C1.3,8.4,1.4,8,1.8,7.9l20.4-6.3c0.2-0.1,0.4,0,0.5,0.1c0.1,0.1,0.2,0.3,0.1,0.5L16.5,22.6z"/>
</g>
<text transform="matrix(1 0 0 1 0 39)" class="st0" style="font-family:'HelveticaNeue-Bold'; font-size:5px;">Created by Imam Maulana</text>
<text transform="matrix(1 0 0 1 0 44)" class="st0" style="font-family:'HelveticaNeue-Bold'; font-size:5px;">from the Noun Project</text>
</svg>
