<?xml version="1.0" encoding="utf-8"?>
<!-- Generator: Adobe Illustrator 20.0.0, SVG Export Plug-In . SVG Version: 6.00 Build 0)  -->
<svg version="1.1" id="Layer_1" xmlns="http://www.w3.org/2000/svg" xmlns:xlink="http://www.w3.org/1999/xlink" x="0px" y="0px"
	 viewBox="0 0 100 94.6" style="enable-background:new 0 0 100 94.6; fill:white" xml:space="preserve">
<style type="text/css">
	.st0{display:none;enable-background:new    ;}
	.st1{display:inline;}
</style>
<title>Heart</title>
<path d="M85,14.3c-7.1-3.8-17.7-2.6-25.2,8.5c-7.6-11-18.1-12.3-25.2-8.5c-1.2,0.6-2.3,1.4-3.3,2.3c-5.5-5-12.2-5.9-17.8-2.2
	C5.9,19.4,1.2,32.7,9,50.1c8.8,19.8,24.8,35.7,25.5,36.3l1.4,1.4l1.4-1.4c3.5-3.5,6.7-7.2,9.7-11.1c3.6,4,7.4,7.8,11.5,11.3l1.3,1.1
	l1.3-1.1c0.8-0.7,19.2-16.5,29.4-36.3C99.2,33.3,94.3,19.3,85,14.3z M35.9,82.1c-4.1-4.3-16.2-17.9-23.2-33.6
	c-6.5-14.6-3.4-26.5,3-30.7c4.1-2.7,8.8-2,12.9,1.8c-5,6.8-6.1,17.9,0.5,30.8c4.2,7.9,9.3,15.2,15.2,21.9
	C40.7,76.8,37.6,80.3,35.9,82.1z M86.9,48.5c-8.3,16.1-22.7,30-27.1,33.9c-4.4-4-18.8-17.8-27.1-33.9c-7.6-14.8-3.9-26.6,3.8-30.7
	c1.8-1,3.9-1.5,6-1.5c5.2,0,11.1,3.2,15.6,11.2l1.8,3.1l1.7-3.1c6.3-11.3,15.4-13,21.6-9.7C90.7,21.9,94.4,33.8,86.9,48.5L86.9,48.5
	z"/>
<text transform="matrix(1 0 0 1 0 115)" class="st0" style="font-family:'HelveticaNeue-Bold'; font-size:5px;">Created by Lnhi</text>
<text transform="matrix(1 0 0 1 0 120)" class="st0" style="font-family:'HelveticaNeue-Bold'; font-size:5px;">from the Noun Project</text>
</svg>
